<?xml version="1.0" encoding="UTF-8"?>
<svg width="62px" height="62px" viewBox="0 0 62 62" version="1.1" xmlns="http://www.w3.org/2000/svg" xmlns:xlink="http://www.w3.org/1999/xlink">
    <!-- Generator: Sketch 55.2 (78181) - https://sketchapp.com -->
    <title>icon</title>
    <desc>Created with Sketch.</desc>
    <g id="Website" stroke="none" stroke-width="1" fill="none" fill-rule="evenodd">
        <g id="Tablet" transform="translate(-369.000000, -1193.000000)" fill="#F7BA4A" fill-rule="nonzero">
            <g id="Second-page" transform="translate(0.000000, 1016.000000)">
                <g id="Event-desc" transform="translate(35.555556, 88.888889)">
                    <g id="Date-&amp;-time" transform="translate(334.222222, 88.888889)">
                        <path d="M7.63211267,9.54026667 L7.63211267,1.90802817 C7.63211267,0.853283585 8.48539625,0 9.5403925,0 C10.5948854,0 11.448169,0.853283585 11.448169,1.90802817 L11.448169,9.54026667 C11.448169,10.5947596 10.5948854,11.4480432 9.5403925,11.4480432 C8.48539625,11.448169 7.63211267,10.5947596 7.63211267,9.54026667 Z M40.0687173,11.448169 C41.1229586,11.448169 41.9767455,10.5948854 41.9767455,9.5403925 L41.9767455,1.90802817 C41.9767455,0.853283585 41.1229586,0 40.0687173,0 C39.0139727,0 38.16006,0.853283585 38.16006,1.90802817 L38.16006,9.54026667 C38.16006,10.5947596 39.0139727,11.448169 40.0687173,11.448169 Z M61.056398,45.791921 C61.056398,54.2223276 54.2220759,61.0565238 45.7922985,61.0565238 C37.3631503,61.0565238 30.5283248,54.2223276 30.5283248,45.791921 C30.5283248,37.3627727 37.3630244,30.528199 45.7922985,30.528199 C54.2220759,30.528199 61.056398,37.3626469 61.056398,45.791921 Z M57.240845,45.791921 C57.240845,39.4799378 52.10554,34.3440037 45.7924243,34.3440037 C39.479812,34.3440037 34.344507,39.479812 34.344507,45.791921 C34.344507,52.1051625 39.479812,57.2403417 45.7924243,57.2403417 C52.10554,57.2403417 57.240845,52.1051625 57.240845,45.791921 Z M15.2643512,22.8962122 L7.63211267,22.8962122 L7.63211267,30.528199 L15.2643512,30.528199 L15.2643512,22.8962122 Z M7.63211267,41.976368 L15.2643512,41.976368 L15.2643512,34.3440037 L7.63211267,34.3440037 L7.63211267,41.976368 Z M19.0801558,30.528199 L26.7125202,30.528199 L26.7125202,22.8962122 L19.0801558,22.8962122 L19.0801558,30.528199 Z M19.0801558,41.976368 L26.7125202,41.976368 L26.7125202,34.3440037 L19.0801558,34.3440037 L19.0801558,41.976368 Z M3.816308,45.41253 L3.816308,19.08003 L45.7924243,19.08003 L45.7924243,26.7122685 L49.6086065,26.7122685 L49.6086065,11.8284408 C49.6086065,9.5104439 47.7598464,7.63198683 45.4758248,7.63198683 L43.8843962,7.63198683 L43.8843962,9.5403925 C43.8843962,11.6419541 42.1735506,13.356323 40.0688432,13.356323 C37.9635065,13.356323 36.2527868,11.6419541 36.2527868,9.5403925 L36.2527868,7.63198683 L13.3560713,7.63198683 L13.3560713,9.5403925 C13.3560713,11.6419541 11.6456033,13.356323 9.54051834,13.356323 C7.43493004,13.356323 5.72433617,11.6419541 5.72433617,9.5403925 L5.72433617,7.63198683 L4.13479506,7.63198683 C1.85064765,7.63198683 0.000125834476,9.5104439 0.000125834476,11.8284408 L0.000125834476,45.4126559 C0.000125834476,47.7229769 1.85064765,49.6087323 4.13479506,49.6087323 L26.7125202,49.6087323 L26.7125202,45.7920468 L4.13479506,45.7920468 C3.96189849,45.791921 3.816308,45.6133619 3.816308,45.41253 Z M38.16006,30.528199 L38.16006,22.8962122 L30.5284507,22.8962122 L30.5284507,30.528199 L38.16006,30.528199 Z M51.5165088,45.791921 L45.7922985,45.791921 L45.7922985,40.0677107 C45.7922985,39.0135952 44.9390149,38.1603117 43.8842703,38.1603117 C42.8295257,38.1603117 41.9767455,39.0135952 41.9767455,40.0677107 L41.9767455,47.7005783 C41.9767455,48.7548196 42.8295257,49.6086065 43.8842703,49.6086065 L51.5165088,49.6086065 C52.5712534,49.6086065 53.424537,48.7548196 53.424537,47.7005783 C53.424537,46.6458337 52.5712534,45.791921 51.5165088,45.791921 Z" id="icon"></path>
                    </g>
                </g>
            </g>
        </g>
    </g>
</svg>