<?xml version="1.0" encoding="UTF-8"?>
<svg width="64px" height="64px" viewBox="0 0 64 64" version="1.1" xmlns="http://www.w3.org/2000/svg" xmlns:xlink="http://www.w3.org/1999/xlink">
    <!-- Generator: Sketch 55.2 (78181) - https://sketchapp.com -->
    <title>facebook</title>
    <desc>Created with Sketch.</desc>
    <g id="Website" stroke="none" stroke-width="1" fill="none" fill-rule="evenodd">
        <g id="Tablet" transform="translate(-263.000000, -794.000000)" fill="#000000" fill-rule="nonzero">
            <g id="Group-2" transform="translate(173.000000, 204.000000)">
                <g id="Title-Content" transform="translate(0.000000, 407.000000)">
                    <g id="Social-icon" transform="translate(1.000000, 183.000000)">
                        <path d="M121.036364,0.12872549 C103.463667,0.12872549 89.2181818,14.3941624 89.2181818,31.9914706 C89.2181818,49.5887788 103.463667,63.8542157 121.036364,63.8542157 C138.60906,63.8542157 152.854545,49.5887788 152.854545,31.9914706 C152.834906,14.4023151 138.600919,0.148392323 121.036364,0.12872549 Z M128.948909,33.1130392 L123.772727,33.1130392 L123.772727,51.5934314 L116.102,51.5934314 L116.102,33.1130392 L112.455636,33.1130392 L112.455636,26.582451 L116.102,26.582451 L116.102,22.3587255 C116.102,19.3330392 117.537636,14.6071569 123.842727,14.6071569 L129.526727,14.6288235 L129.526727,20.9682353 L125.401818,20.9682353 C124.935356,20.9440315 124.482565,21.1301899 124.167657,21.4756428 C123.852749,21.8210957 123.70879,22.289569 123.775273,22.752549 L123.775273,26.590098 L129.619636,26.590098 L128.948909,33.1130392 Z" id="facebook"></path>
                    </g>
                </g>
            </g>
        </g>
    </g>
</svg>