<?xml version="1.0" encoding="UTF-8"?>
<svg width="64px" height="63px" viewBox="0 0 64 63" version="1.1" xmlns="http://www.w3.org/2000/svg" xmlns:xlink="http://www.w3.org/1999/xlink">
    <!-- Generator: Sketch 55.2 (78181) - https://sketchapp.com -->
    <title>GitHub</title>
    <desc>Created with Sketch.</desc>
    <g id="Website" stroke="none" stroke-width="1" fill="none" fill-rule="evenodd">
        <g id="Tablet" transform="translate(-441.000000, -795.000000)" fill="#000000" fill-rule="nonzero">
            <g id="Group-2" transform="translate(173.000000, 204.000000)">
                <g id="Title-Content" transform="translate(0.000000, 407.000000)">
                    <g id="Social-icon" transform="translate(1.000000, 183.000000)">
                        <path d="M326.640364,17.1447059 C323.861784,12.3288381 319.867678,8.32913743 315.058545,5.54666667 C310.217681,2.70788002 304.700567,1.23221125 299.090909,1.27578431 C293.479745,1.23248352 287.961255,2.70904817 283.119455,5.54921569 C278.310212,8.3315429 274.316072,12.3312769 271.537636,17.1472549 C268.702938,21.9949489 267.229342,27.5197563 267.272727,33.1372549 C267.206104,39.8773821 269.337129,46.4552712 273.342364,51.872549 C277.209523,57.2866906 282.704176,61.3206748 289.023636,63.3851961 C289.589852,63.5583782 290.204611,63.4504079 290.678182,63.0946078 C291.030322,62.7785173 291.226976,62.3241357 291.216545,61.8506863 C291.216545,61.765719 291.209758,61.0188562 291.196182,59.610098 C291.182606,58.2013399 291.175818,56.9693137 291.175818,55.9140196 L290.222545,56.0797059 C289.462264,56.2009647 288.692198,56.2496147 287.922727,56.225 C286.956731,56.2078035 285.99381,56.1106093 285.043818,55.9344118 C284.032574,55.7478631 283.080712,55.3213069 282.268,54.6904902 C281.416045,54.0459143 280.780327,53.156796 280.445455,52.1414706 L280.030545,51.1868627 C279.682523,50.4313962 279.244951,49.7206296 278.727273,49.069902 C278.262856,48.4060286 277.644412,47.8650072 276.925091,47.4933333 L276.634909,47.2855882 C276.436048,47.1418199 276.255281,46.9744938 276.096545,46.7872549 C275.94344,46.6136559 275.81769,46.417674 275.723636,46.2060784 C275.638788,46.0123529 275.707939,45.8530392 275.931091,45.7281373 C276.312219,45.5754318 276.723221,45.5122127 277.132545,45.5433333 L277.961091,45.6707843 C278.701351,45.8694932 279.397152,46.2072844 280.011455,46.6661765 C280.833067,47.2264848 281.519599,47.9631786 282.021091,48.8226471 C282.569908,49.8565832 283.358623,50.7434371 284.320909,51.4086275 C285.116232,51.9704908 286.061243,52.2812012 287.034364,52.3007843 C287.826263,52.3115981 288.617233,52.2424247 289.395273,52.0943137 C290.039395,51.9618179 290.665364,51.7525843 291.259818,51.4710784 C291.398026,49.8490816 292.119342,48.3324237 293.289818,47.2027451 C291.857677,47.0619914 290.438308,46.8123164 289.044,46.4558824 C287.683458,46.0811889 286.375105,45.537419 285.149455,44.8372549 C283.866489,44.138349 282.733098,43.1939045 281.813636,42.057549 C280.828148,40.751206 280.090865,39.2745753 279.638545,37.7012745 C279.041336,35.6820654 278.755076,33.5834706 278.789636,31.4778431 C278.721043,28.3095505 279.896394,25.2407557 282.063091,22.9309804 C281.045133,20.1815476 281.149382,17.1412689 282.353273,14.4682353 C283.570344,14.2710374 284.818505,14.4670053 285.916909,15.0277451 C287.109013,15.4708679 288.265484,16.0047487 289.376182,16.6247059 C290.108424,17.0665359 290.695576,17.4399673 291.137636,17.745 C296.343498,16.3073159 301.840866,16.3073159 307.046727,17.745 L308.621091,16.7496078 C309.830685,16.0214136 311.106592,15.4098784 312.431636,14.9232353 C313.473533,14.4163947 314.649989,14.2565156 315.789091,14.4669608 C317.017944,17.1317783 317.137011,20.1768247 316.12,22.9297059 C318.285992,25.239924 319.461228,28.3084189 319.393455,31.4765686 C319.426642,33.5892288 319.140433,35.6947575 318.544545,37.7216667 C318.097922,39.3008512 317.353082,40.7796377 316.350364,42.0779412 C315.415367,43.2013821 314.276629,44.1376059 312.994182,44.8372549 C311.768385,45.5371189 310.46007,46.0808728 309.099636,46.4558824 C307.705386,46.8128571 306.286007,47.0629597 304.853818,47.2040196 C306.409301,48.7501278 307.198302,50.9084454 307.007273,53.0948039 L307.007273,61.8481373 C306.996126,62.3175479 307.184394,62.7696514 307.525273,63.0920588 C307.991045,63.4501117 308.601962,63.5580996 309.162,63.3813725 C315.4804,61.3161156 320.97374,57.2816667 324.839455,51.867451 C328.843898,46.4512201 330.974882,39.8748031 330.909091,33.1359804 C330.950285,27.5178552 329.475443,21.9928834 326.640364,17.1447059 Z" id="GitHub"></path>
                    </g>
                </g>
            </g>
        </g>
    </g>
</svg>