<?xml version="1.0" encoding="UTF-8"?>
<svg width="64px" height="64px" viewBox="0 0 64 64" version="1.1" xmlns="http://www.w3.org/2000/svg" xmlns:xlink="http://www.w3.org/1999/xlink">
    <!-- Generator: Sketch 55.2 (78181) - https://sketchapp.com -->
    <title>Instagram</title>
    <desc>Created with Sketch.</desc>
    <g id="Website" stroke="none" stroke-width="1" fill="none" fill-rule="evenodd">
        <g id="Tablet" transform="translate(-352.000000, -794.000000)" fill="#000000" fill-rule="nonzero">
            <g id="Group-2" transform="translate(173.000000, 204.000000)">
                <g id="Title-Content" transform="translate(0.000000, 407.000000)">
                    <g id="Social-icon" transform="translate(1.000000, 183.000000)">
                        <path d="M210,63.7267658 C207.846788,63.7267658 205.699009,63.5104188 203.589273,63.0793137 C201.542409,62.6591916 199.542108,62.0371711 197.617636,61.2223529 C195.725008,60.4201132 193.914381,59.436276 192.211091,58.2846078 C190.52133,57.140588 188.944481,55.8376523 187.502,54.3935294 C186.059391,52.9491432 184.757845,51.3700777 183.615091,49.6778431 C182.467657,47.9725513 181.48735,46.1602843 180.687818,44.2662745 C179.874177,42.338655 179.253029,40.3351336 178.833455,38.285 C178.401389,36.1720299 178.183073,34.0208333 178.181818,31.8640196 C178.181818,29.7073784 178.398016,27.5561845 178.828364,25.4430392 C179.247922,23.3929014 179.869071,21.3893785 180.682727,19.4617647 C181.482192,17.5673188 182.462501,15.7546226 183.61,14.0489216 C184.75271,12.3566543 186.05426,10.7775848 187.496909,9.33323529 C188.939344,7.88906063 190.516198,6.58612072 192.206,5.44215686 C193.90929,4.29048871 195.719917,3.30665147 197.612545,2.50441176 C199.536838,1.68910567 201.537188,1.0670699 203.584182,0.64745098 C205.695629,0.216432698 207.84513,-5.67772372e-05 210,0.00126840724 C212.153209,0.00126840724 214.300981,0.217680423 216.410727,0.64872549 C218.457675,1.06852326 220.458007,1.69055361 222.382364,2.50568627 C224.274681,3.30773317 226.084904,4.29158239 227.787636,5.44343137 C229.477165,6.58776168 231.053986,7.89067384 232.496727,9.3345098 C233.939309,10.7785764 235.240461,12.3576814 236.382364,14.0501961 C237.532926,15.7553327 238.51582,17.568081 239.317273,19.4630392 C240.130929,21.390653 240.752078,23.394176 241.171636,25.4443137 C241.601899,27.5570417 241.818182,29.7078044 241.818182,31.8640196 C241.818182,34.0206612 241.601993,36.171856 241.171636,38.285 C240.752062,40.3351336 240.130914,42.338655 239.317273,44.2662745 C238.515746,46.1607931 237.532853,47.9731115 236.382364,49.6778431 C235.240518,51.3704 233.939361,52.9495102 232.496727,54.3935294 C231.053939,55.8373138 229.477123,57.1402218 227.787636,58.2846078 C226.084904,59.4364568 224.274681,60.4203061 222.382364,61.2223529 C220.457892,62.0371711 218.457591,62.6591916 216.410727,63.0793137 C214.300981,63.5103588 212.153209,63.7267658 210,63.7267658 L210,63.7267658 Z M210,13.5671569 C205.072,13.5671569 204.421636,13.5888235 202.466727,13.6780392 C200.951511,13.7103128 199.452521,13.9976913 198.032545,14.5281373 C197.424931,14.7567856 196.844089,15.051246 196.300364,15.4062745 C195.755525,15.7609215 195.25107,16.1741973 194.796,16.6387255 C194.332642,17.0944429 193.919989,17.5991238 193.565273,18.1439216 C193.210949,18.688781 192.917318,19.2708829 192.689636,19.8798039 C192.158701,21.3019113 191.87127,22.8035585 191.839455,24.3214706 C191.751636,26.2689216 191.73,26.9163725 191.73,31.8652941 C191.73,36.8142157 191.751636,37.4642157 191.840727,39.4091176 C191.872472,40.9265067 192.159464,42.4276767 192.689636,43.8495098 C192.918233,44.4582609 193.212265,45.0403104 193.566545,45.5853922 C193.920894,46.1301029 194.333116,46.6347779 194.796,47.0905882 C195.251587,47.5545492 195.755978,47.9677722 196.300364,48.3230392 C196.844648,48.6778774 197.42589,48.9723244 198.033818,49.2011765 C199.453359,49.7315992 200.951927,50.0189793 202.466727,50.0512745 C204.421636,50.1404902 205.072,50.1621569 210,50.1621569 C214.928,50.1621569 215.578364,50.1404902 217.533273,50.0512745 C219.048486,50.0189767 220.547472,49.731599 221.967455,49.2011765 C222.575744,48.964637 223.15794,48.665657 223.704727,48.3090196 C224.244598,47.9555762 224.746592,47.5472684 225.202727,47.0905882 C225.659241,46.6334392 226.067405,46.1303145 226.420727,45.5892157 C226.777288,45.0419077 227.075873,44.4588516 227.311636,43.8495098 C227.842243,42.42731 228.129663,40.9257193 228.161818,39.4078431 C228.249636,37.4616667 228.271273,36.8129412 228.271273,31.8652941 C228.271273,26.9176471 228.249636,26.2714706 228.161818,24.3214706 C228.129518,22.8036099 227.842102,21.3020432 227.311636,19.8798039 C227.08342,19.2712888 226.789365,18.6896213 226.434727,18.1451961 C226.080501,17.6000398 225.667805,17.0953078 225.204,16.64 C224.749164,16.1757252 224.245159,15.7624688 223.700909,15.407549 C223.157093,15.0526791 222.576269,14.7582276 221.968727,14.5294118 C220.548624,13.999588 219.049668,13.7126469 217.534545,13.6805882 C215.580909,13.590098 214.930545,13.5684314 210,13.5684314 L210,13.5671569 Z M210,46.8637255 C205.116545,46.8637255 204.538727,46.8446078 202.618182,46.7566667 C201.459429,46.7435704 200.311599,46.5305838 199.225091,46.1270588 C198.829281,45.9812107 198.451041,45.7913986 198.097455,45.5611765 C197.744095,45.3311167 197.417522,45.0622251 197.123818,44.7595098 C196.821299,44.4652612 196.552376,44.1382538 196.322,43.7845098 C196.092443,43.4306818 195.902913,43.0523739 195.756909,42.6565686 C195.355263,41.5686173 195.142615,40.4198278 195.128182,39.26 C195.040364,37.3265686 195.021273,36.7466667 195.021273,31.8678431 C195.021273,26.9890196 195.040364,26.4078431 195.128182,24.4756863 C195.142395,23.3154222 195.355048,22.1661768 195.756909,21.0778431 C195.902927,20.6814098 196.092903,20.3026351 196.323273,19.9486275 C196.552847,19.5946528 196.821377,19.2676049 197.123818,18.9736275 C197.417684,18.6707158 197.74423,18.4014185 198.097455,18.1706863 C198.451384,17.9402765 198.830067,17.7504562 199.226364,17.6048039 C200.312565,17.2017664 201.459892,16.9887933 202.618182,16.9751961 C204.543818,16.8872549 205.121636,16.8681373 210,16.8681373 C214.878364,16.8681373 215.448545,16.8872549 217.381818,16.9751961 C218.540105,16.9888186 219.687428,17.2017909 220.773636,17.6048039 C221.169713,17.7509655 221.548341,17.940758 221.902545,18.1706863 C222.255535,18.4017381 222.582048,18.6710075 222.876182,18.9736275 C223.17804,19.2681421 223.446514,19.5951219 223.676727,19.9486275 C223.906654,20.3022432 224.096205,20.6805937 224.241818,21.0765686 C224.647311,22.164158 224.862583,23.3135967 224.878182,24.4744118 C224.964727,26.4001961 224.983818,26.977549 224.983818,31.8665686 C224.983818,36.7555882 224.964727,37.3342157 224.878182,39.2587255 C224.862184,40.4190863 224.646922,41.5680385 224.241818,42.6552941 C224.089923,43.050999 223.896667,43.429509 223.665273,43.7845098 C223.436513,44.1358836 223.172076,44.4626219 222.876182,44.7595098 C222.579546,45.0556362 222.253284,45.3204279 221.902545,45.5497059 C221.547449,45.781176 221.169073,45.9746869 220.773636,46.1270588 C219.687543,46.5304891 218.540147,46.743475 217.381818,46.7566667 C215.461273,46.8458824 214.884727,46.865 210,46.865 L210,46.8637255 Z M210,22.4683131 C208.745658,22.465716 207.503698,22.71671 206.348545,23.2062745 C205.790265,23.4429075 205.256194,23.7331524 204.753818,24.0729412 C204.255844,24.4105372 203.79092,24.7946051 203.365273,25.22 C202.940382,25.6461608 202.556844,26.1117454 202.219818,26.6104902 C201.880296,27.1129937 201.590443,27.6474109 201.354364,28.2061765 C200.865852,29.3635077 200.615228,30.6075471 200.61744,31.8640196 C200.615364,33.1200666 200.865986,34.3636625 201.354364,35.5205882 C201.590443,36.0793538 201.880296,36.613771 202.219818,37.1162745 C202.556844,37.6150193 202.940382,38.0806039 203.365273,38.5067647 C203.79092,38.9321596 204.255844,39.3162276 204.753818,39.6538235 C205.256157,39.9936739 205.790234,40.2839222 206.348545,40.5204902 C207.503698,41.0100547 208.745658,41.2610487 210,41.2584516 C211.254328,41.2609088 212.496261,41.0099203 213.651455,40.5204902 C214.209358,40.2839133 214.743012,39.9936633 215.244909,39.6538235 C215.743318,39.3168106 216.208296,38.9326986 216.633455,38.5067647 C217.058729,38.0809531 217.442299,37.6153303 217.778909,37.1162745 C218.11837,36.6137332 218.408219,36.0793222 218.644364,35.5205882 C219.133344,34.363849 219.383991,33.1201288 219.381297,31.8640196 C219.384163,30.6074815 219.133512,29.3633107 218.644364,28.2061765 C218.408183,27.64746 218.118335,27.1130524 217.778909,26.6104902 C217.442342,26.1114016 217.05877,25.6457748 216.633455,25.22 C216.208238,24.7941299 215.743267,24.4100231 215.244909,24.0729412 C214.742975,23.7331631 214.209327,23.4429165 213.651455,23.2062745 C212.49617,22.7172815 211.254241,22.4667272 210,22.4696078 L210,22.4683131 Z M219.752909,19.9014375 C219.1716,19.8982664 218.613085,20.1276745 218.201455,20.5387255 C217.791651,20.95086 217.562654,21.5094787 217.565072,22.0910784 C217.562654,22.6726782 217.791651,23.2312969 218.201455,23.6434314 C218.613085,24.0544824 219.1716,24.2838904 219.752909,24.2807212 C220.33386,24.2839755 220.892011,24.0545288 221.303091,23.6434314 C221.713373,23.2316157 221.942456,22.6727883 221.939484,22.0910784 C221.942456,21.5093685 221.713373,20.9505412 221.303091,20.5387255 C220.891802,20.1280953 220.333677,19.899118 219.752909,19.9027451 L219.752909,19.9014375 Z M210,37.9638353 C209.185503,37.9653242 208.379067,37.8023373 207.628909,37.4846078 C206.905248,37.1782162 206.247827,36.7341275 205.693091,36.1769608 C205.13716,35.6213355 204.69413,34.9630012 204.388545,34.2384314 C204.070958,33.4877629 203.908183,32.6805511 203.909982,31.8652941 C203.908012,31.0496081 204.07079,30.2419458 204.388545,29.4908824 C204.69413,28.7663126 205.13716,28.1079782 205.693091,27.5523529 C206.247827,26.9951862 206.905248,26.5510976 207.628909,26.2447059 C208.379067,25.9269764 209.185503,25.7639895 210,25.7654784 C210.814096,25.7638814 211.620137,25.926876 212.369818,26.2447059 C213.093588,26.5508976 213.751045,26.9950108 214.305636,27.5523529 C214.861642,28.1079163 215.304683,28.7662662 215.610182,29.4908824 C215.927937,30.2419458 216.090715,31.0496081 216.088745,31.8652941 C216.090544,32.6805511 215.927769,33.4877629 215.610182,34.2384314 C215.304683,34.9630475 214.861642,35.6213975 214.305636,36.1769608 C213.751045,36.734303 213.093588,37.1784162 212.369818,37.4846078 C211.620137,37.8024377 210.814096,37.9654324 210,37.9638353 Z" id="Instagram"></path>
                    </g>
                </g>
            </g>
        </g>
    </g>
</svg>