<?xml version="1.0" encoding="UTF-8"?>
<svg width="64px" height="64px" viewBox="0 0 64 64" version="1.1" xmlns="http://www.w3.org/2000/svg" xmlns:xlink="http://www.w3.org/1999/xlink">
    <!-- Generator: Sketch 55.2 (78181) - https://sketchapp.com -->
    <title>Medium</title>
    <desc>Created with Sketch.</desc>
    <g id="Website" stroke="none" stroke-width="1" fill="none" fill-rule="evenodd">
        <g id="Tablet" transform="translate(-530.000000, -794.000000)" fill="#000000" fill-rule="nonzero">
            <g id="Group-2" transform="translate(173.000000, 204.000000)">
                <g id="Title-Content" transform="translate(0.000000, 407.000000)">
                    <g id="Social-icon" transform="translate(1.000000, 183.000000)">
                        <path d="M388.181818,63.7268256 C383.926886,63.7349101 379.714071,62.8831039 375.795636,61.2223529 C372.015057,59.6229234 368.580494,57.3037487 365.682545,54.3935294 C362.776246,51.4916465 360.460294,48.0522419 358.863273,44.2662745 C357.205616,40.3426046 356.355446,36.124377 356.363577,31.8640196 C356.355414,27.6032471 357.205583,23.3845966 358.863273,19.4604902 C360.460692,15.6743625 362.776585,12.2346127 365.682545,9.33196078 C368.580494,6.4217415 372.015057,4.10256675 375.795636,2.50313725 C379.714221,0.843159782 383.927051,-0.00778216852 388.181818,0.00120297019 C392.436342,-0.00690917026 396.64875,0.844901909 400.566727,2.50568627 C404.347276,4.10517289 407.781829,6.42434062 410.679818,9.3345098 C413.585554,12.2373476 415.901415,15.6770506 417.499091,19.4630392 C419.156882,23.3862646 420.007477,27.6040177 420.000059,31.8640196 C420.008191,36.124377 419.15802,40.3426046 417.500364,44.2662745 C415.902915,48.0520098 413.587015,51.4913364 410.681091,54.3935294 C407.783101,57.3036986 404.348549,59.6228663 400.568,61.2223529 C396.649628,62.8833054 392.436771,63.73512 388.181818,63.7268256 Z M396.207636,25.9477451 L396.207636,25.9477451 L396.207636,42.8617647 C396.207636,43.3180392 396.207636,43.3996078 395.907273,43.6952941 L392.822182,46.6139216 L392.822182,47.2397059 L407.794545,47.2397059 L407.794545,46.6139216 L404.818909,43.7653922 C404.556924,43.574651 404.425703,43.251573 404.480364,42.9318627 L404.480364,21.9967647 C404.425295,21.6762822 404.5565,21.3522549 404.818909,21.1606863 L407.865818,18.3121569 L407.865818,17.6863725 L397.313636,17.6863725 L389.793091,35.9819608 L381.236545,17.6863725 L370.163818,17.6863725 L370.163818,18.3121569 L373.727455,22.5001961 C374.075349,22.8033743 374.255105,23.2564807 374.209818,23.7160784 L374.209818,40.1687255 C374.311464,40.7642196 374.118908,41.3721429 373.693091,41.800098 L369.681455,46.5438235 L369.681455,47.1708824 L381.053273,47.1708824 L381.053273,46.5438235 L377.042909,41.800098 C376.615184,41.3721412 376.411379,40.7688252 376.491818,40.1687255 L376.491818,25.9413725 L386.473818,47.1721569 L387.632,47.1721569 L396.207636,25.9477451 Z" id="Medium"></path>
                    </g>
                </g>
            </g>
        </g>
    </g>
</svg>