<?xml version="1.0" encoding="UTF-8"?>
<svg width="64px" height="64px" viewBox="0 0 64 64" version="1.1" xmlns="http://www.w3.org/2000/svg" xmlns:xlink="http://www.w3.org/1999/xlink">
    <!-- Generator: Sketch 55.2 (78181) - https://sketchapp.com -->
    <title>WhatsApp</title>
    <desc>Created with Sketch.</desc>
    <g id="Website" stroke="none" stroke-width="1" fill="none" fill-rule="evenodd">
        <g id="Tablet" transform="translate(-174.000000, -794.000000)" fill="#000000" fill-rule="nonzero">
            <g id="Group-2" transform="translate(173.000000, 204.000000)">
                <g id="Title-Content" transform="translate(0.000000, 407.000000)">
                    <g id="Social-icon" transform="translate(1.000000, 183.000000)">
                        <path d="M0,31.8640196 C0,14.2667114 14.2454852,0.0012745098 31.8181818,0.0012745098 C49.3908784,0.0012745098 63.6363636,14.2667114 63.6363636,31.8640196 C63.6363636,49.4613278 49.3908784,63.7267647 31.8181818,63.7267647 C14.2454852,63.7267647 0,49.4613278 0,31.8640196 Z M13.4489091,31.3363725 C13.4451272,34.6822526 14.3231764,37.9698767 15.9943636,40.8671569 L13.2910909,50.7458824 L23.3863636,48.094902 C26.1789458,49.6175681 29.3079278,50.4154784 32.4876364,50.4157843 L32.4952727,50.4157843 C43.0045894,50.401751 51.5215648,41.875697 51.5391861,31.3516667 C51.5551078,26.2912404 49.5486794,21.4347393 45.9670909,17.8648039 C42.4030145,14.2739638 37.552291,12.2605541 32.4965455,12.2734671 C21.9856537,12.2840549 13.4657426,20.8107679 13.4489091,31.3363725 Z M32.4863636,47.1963725 C29.6516886,47.1970648 26.8690169,46.43417 24.43,44.9876471 L23.8521818,44.6448039 L17.8614545,46.217549 L19.46,40.370098 L19.0781818,39.7710784 C17.4940021,37.245043 16.6556686,34.3217887 16.6599833,31.3389216 C16.6747309,22.5892747 23.7578541,15.501932 32.4952727,15.4941751 C36.6952186,15.484675 40.7244654,17.1579244 43.6850909,20.1410784 C46.6630772,23.1099722 48.3308679,27.1487503 48.3166369,31.3567647 C48.3018226,40.1039271 41.2225702,47.1902444 32.4876364,47.2014706 L32.4863636,47.1963725 Z M24.4809091,23.1298039 C23.3936067,24.1617447 22.7895043,25.6038161 22.8161818,27.1037255 C22.9710148,28.9010099 23.6464657,30.6139286 24.7596364,32.0322549 C26.8004268,35.0946457 29.6012605,37.5730737 32.8872727,39.2243137 C33.7735159,39.6062068 34.6792592,39.9410184 35.6007273,40.2273529 C36.5712004,40.5224449 37.5969881,40.5870283 38.5967273,40.4159804 C39.9359026,40.1423291 41.1002697,39.3214186 41.8090909,38.1511765 C42.1205301,37.4395949 42.2169868,36.6522393 42.0865455,35.8863725 C41.9681818,35.687549 41.65,35.5677451 41.1752727,35.3294118 C40.7005455,35.0910784 38.36,33.9389216 37.9234545,33.7796078 C37.4869091,33.6202941 37.17,33.5412745 36.8530909,34.0179412 C36.5361818,34.4946078 35.6236364,35.5677451 35.3461818,35.8863725 C35.0687273,36.205 34.79,36.2432353 34.3152727,36.0061765 C32.912234,35.4464806 31.6172043,34.6464657 30.4881818,33.6419608 C29.4477687,32.6791095 28.5556469,31.5671199 27.8409091,30.3422549 C27.5634545,29.8655882 27.8409091,29.6323529 28.0496364,29.3698039 C28.4859658,28.8570672 28.8837233,28.3126331 29.2396364,27.7409804 C29.368035,27.4738808 29.3531974,27.1599386 29.2001818,26.9061765 C29.0805455,26.6678431 28.1298182,24.3240196 27.7327273,23.3694118 C27.3916364,22.549902 27.0467273,22.5511765 26.7692727,22.552451 L26.6623636,22.552451 C26.3849091,22.5384314 26.068,22.5358824 25.7510909,22.5358824 C25.2637843,22.5478026 24.8034881,22.7625696 24.4809091,23.1285294 L24.4809091,23.1298039 Z" id="WhatsApp"></path>
                    </g>
                </g>
            </g>
        </g>
    </g>
</svg>